{"title":"October.Sky.1999.SWESUB.DVDRip.XviD.-Zen_Bud","uid":5660896,"size":1467821160,"categoryP":"video","categoryS":"movies","magnet":"?xt=urn:btih:1e0506f58f52849fe0b7e77f88932443b42e8263&amp;dn=October.Sky.1999.SWESUB.DVDRip.XviD.-Zen_Bud&amp;tr=udp%3A%2F%2Ftracker.openbittorrent.com%3A80&amp;tr=udp%3A%2F%2Fopen.demonii.com%3A1337&amp;tr=udp%3A%2F%2Ftracker.coppersurfer.tk%3A6969&amp;tr=udp%3A%2F%2Fexodus.desync.com%3A6969","seeders":5,"leechers":0,"uploader":"Zen_Bud","files":-1,"time":1277974874,"description":"General\nComplete name                    : October.Sky.avi\nFormat                           : AVI\nFile size                        : 1.37 GiB\nDuration                         : 1h 42mn\nOverall bit rate                 : 1 901 Kbps\n\n\nVideo\n\nFormat                           : MPEG-4 Visual\nCodec ID                         : XVID\nDuration                         : 1h 42mn\nBit rate                         : 1 763 Kbps\nWidth                            : 688 pixels\nHeight                           : 384 pixels\nDisplay aspect ratio             : 16:9\nStream size                      : 1.27 GiB (93%)\nWriting library                  : XviD 1.2.0.dev47 (UTC 2006-11-01)\n\nAudio\n\nFormat                           : MPEG Audio\nCodec ID/Hint                    : MP3\nDuration                         : 1h 42mn\nBit rate                         : 128 Kbps\nChannel(s)                       : 2 channels\nSampling rate                    : 48.0 KHz\nStream size                      : 94.3 MiB (7%))\nInterleave, preload duration     : 504 ms\nWriting library                  : LAME3.97b\n\n\n","torrent":{"xt":"urn:btih:1e0506f58f52849fe0b7e77f88932443b42e8263","amp;dn":"October.Sky.1999.SWESUB.DVDRip.XviD.-Zen_Bud","amp;tr":["udp%3A%2F%2Ftracker.openbittorrent.com%3A80","udp%3A%2F%2Fopen.demonii.com%3A1337","udp%3A%2F%2Ftracker.coppersurfer.tk%3A6969","udp%3A%2F%2Fexodus.desync.com%3A6969"],"infoHash":"1e0506f58f52849fe0b7e77f88932443b42e8263","infoHashBuffer":{"type":"Buffer","data":[30,5,6,245,143,82,132,159,224,183,231,127,136,147,36,67,180,46,130,99]},"announce":[],"urlList":[]}}